<svg width="31" height="28" viewBox="0 0 31 28" fill="none" xmlns="http://www.w3.org/2000/svg">
<path d="M24.64 18.3673C24.3094 18.3673 24.039 18.6378 24.039 18.9683V24.3771C24.039 25.3687 23.2277 26.18 22.2361 26.18H3.00488C2.01327 26.18 1.20195 25.3687 1.20195 24.3771V7.5498C1.20195 6.55819 2.01327 5.74687 3.00488 5.74687H16.2263C16.5569 5.74687 16.8273 5.47643 16.8273 5.1459C16.8273 4.81536 16.5569 4.54492 16.2263 4.54492H3.00488C1.35219 4.54492 0 5.89712 0 7.5498V24.3771C0 26.0298 1.35219 27.382 3.00488 27.382H22.2361C23.8888 27.382 25.241 26.0298 25.241 24.3771V18.9683C25.241 18.6378 24.9705 18.3673 24.64 18.3673Z" fill="black"/>
<path d="M24.64 14.791C24.3095 14.791 24.0391 15.0615 24.0391 15.392V19.5275C24.0391 19.858 24.3095 19.7904 24.64 19.7904C24.9706 19.7904 25.241 19.9707 25.241 19.6401V15.392C25.241 15.0615 24.9706 14.791 24.64 14.791Z" fill="black"/>
<path d="M5 19.5C5 19.775 5.37498 20 5.83329 20H11.5674C12.0257 20 11.932 19.775 11.932 19.5C11.932 19.225 12.1819 19 11.7236 19H5.83329C5.37498 19 5 19.225 5 19.5Z" fill="black"/>
<path d="M5 10.5C5 10.775 5.37498 11 5.83329 11L11.5674 11C12.0257 11 11.932 10.775 11.932 10.5C11.932 10.225 12.1819 10 11.7236 10L5.83329 10C5.37498 10 5 10.225 5 10.5Z" fill="black"/>
<path d="M11 21.5C11 21.775 11.375 22 11.8333 22H17.5674C18.0257 22 17.932 21.775 17.932 21.5C17.932 21.225 18.1819 21 17.7236 21H11.8333C11.375 21 11 21.225 11 21.5Z" fill="black"/>
<path d="M17.1278 17.7363H13.2215V13.86H14.4234V15.6629C14.4234 16.1737 14.8141 16.5644 15.3249 16.5644H17.1278V17.7363ZM18.3298 16.8949V16.2639C18.3298 15.7531 17.9391 15.3624 17.4283 15.3624H15.6254V13.5595C15.6254 13.0487 15.2347 12.658 14.7239 12.658H14.0328L23.2277 3.46312L27.4946 7.73004L18.3298 16.8949ZM29.2074 6.01726L28.3661 6.85863L24.0991 2.59171L24.9405 1.75034C25.6316 1.05922 26.7735 1.05922 27.4946 1.75034L29.2074 3.46312C29.538 3.79366 29.7182 4.24439 29.7182 4.72517C29.7182 5.20595 29.538 5.68673 29.2074 6.01726Z" fill="black"/>
</svg>
