<svg width="29" height="23" viewBox="0 0 29 23" fill="none" xmlns="http://www.w3.org/2000/svg">
<path d="M0 22.5747V8.38493C0 3.99664 3.57086 0.425781 7.95915 0.425781H21.0389C25.4282 0.425781 29 3.99664 29 8.38493V10.8324C29 15.2207 25.4291 18.7916 21.0408 18.7916H8.14367L0 22.5747ZM7.95915 2.20022C4.54891 2.20022 1.77444 4.97469 1.77444 8.38493V19.7935L7.75265 17.0162H21.0408C24.4511 17.0162 27.2256 14.2417 27.2256 10.8315V8.38398C27.2256 4.97373 24.4501 2.19926 21.0389 2.19926H7.95915V2.20022ZM8.54426 8.25013C9.47641 8.25013 10.2317 9.00541 10.2317 9.93757C10.2317 10.8697 9.47641 11.625 8.54426 11.625C7.61211 11.625 6.85682 10.8697 6.85682 9.93757C6.85682 9.00541 7.61211 8.25013 8.54426 8.25013ZM20.4548 8.25013C21.3869 8.25013 22.1422 9.00541 22.1422 9.93757C22.1422 10.8697 21.3869 11.625 20.4548 11.625C19.5226 11.625 18.7673 10.8697 18.7673 9.93757C18.7673 9.00541 19.5226 8.25013 20.4548 8.25013ZM14.4986 8.25013C15.4307 8.25013 16.186 9.00541 16.186 9.93757C16.186 10.8697 15.4307 11.625 14.4986 11.625C13.5664 11.625 12.8111 10.8697 12.8111 9.93757C12.8111 9.00541 13.5664 8.25013 14.4986 8.25013Z" fill="#010002"/>
</svg>
