<svg width="224" height="56" viewBox="0 0 224 56" fill="none" xmlns="http://www.w3.org/2000/svg">
<path d="M27.64 -3.8147e-06H26.44H19.88C17.8 -3.8147e-06 16.2 0.879994 15 2.64C14.36 3.6 13.96 4.72 13.96 6C13.96 7.44 14.44 8.8 15.4 9.92C16.6 11.2 18.04 11.92 19.72 12H27.64C29.08 12 30.2 12.4 31.16 13.44C32.12 14.4 32.6 15.6 32.6 16.96C32.6 18.32 32.2 19.44 31.16 20.48C30.2 21.44 29 22 27.56 22H27C25.4 22 23.96 22.56 22.76 23.76C21.64 24.88 21 26.32 21 28C21 29.6 21.64 31.04 22.76 32.24C23.96 33.36 25.4 34 27 34H32.44C33.88 34 35 34.4 35.96 35.44C37 36.4 37.48 37.6 37.48 39.04C37.48 40.32 37 41.52 36.04 42.48C35.08 43.44 33.96 43.92 32.6 44H29.64C28.04 44 26.76 44.56 25.64 45.76C24.52 46.88 23.96 48.32 23.96 50C23.96 51.6 24.52 53.04 25.64 54.24C26.84 55.36 28.2 56 29.8 56H32.68C37.32 55.92 41.24 54.24 44.52 50.96C47.88 47.6 49.48 43.68 49.48 39.04C49.48 36.32 48.92 33.76 47.64 31.36C46.36 28.88 44.68 26.88 42.44 25.28C43.88 22.72 44.6 19.92 44.6 16.96C44.6 12.32 43 8.4 39.64 5.04C36.36 1.68 32.36 -3.8147e-06 27.64 -3.8147e-06ZM14.92 -3.8147e-06H6.2H6.12C4.36 -3.8147e-06 2.84 0.719996 1.64 2.16C0.68 3.2 0.2 4.48 0.2 6V49.84V50C0.2 51.6 0.76 53.04 1.88 54.24C3.08 55.36 4.52 56 6.2 56H24.84C23.08 54.4 22.12 52.4 22.12 50C22.12 47.52 23.08 45.52 24.84 44H12.2V12V6C12.2 4.64 12.52 3.36 13.16 2.24C13.64 1.36 14.28 0.639997 14.92 -3.8147e-06ZM61.825 -3.8147e-06C60.225 -3.8147e-06 58.865 0.559999 57.665 1.68C56.465 2.8 55.825 4.24 55.825 6V22.4C56.465 21.6 57.265 21.04 58.145 20.64C59.265 20.08 60.465 19.84 61.745 19.84H61.905C63.185 19.84 64.305 20.08 65.425 20.64C66.385 21.04 67.185 21.6 67.825 22.4C67.985 22.56 68.145 22.72 68.225 22.88L94.385 53.68C95.585 55.2 97.185 56 99.105 56C100.865 56 102.385 55.28 103.585 54C104.625 52.88 105.105 51.52 105.105 50V49.92V33.68C104.465 34.32 103.665 34.88 102.705 35.36C101.585 35.84 100.385 36.16 99.105 36.16C97.665 36.16 96.225 35.76 94.945 35.12C94.065 34.56 93.265 33.92 92.625 33.12L66.305 1.99999C65.745 1.36 65.025 0.799995 64.225 0.479995C63.505 0.159994 62.705 -3.8147e-06 61.825 -3.8147e-06ZM99.105 -3.8147e-06C97.505 -3.8147e-06 96.065 0.559999 94.945 1.68C93.745 2.8 93.105 4.24 93.105 6V29.2C93.105 30.32 93.505 31.28 94.225 32.24C95.425 33.68 97.025 34.48 99.105 34.48C100.545 34.48 101.825 34.08 102.945 33.28C104.385 32.16 105.105 30.8 105.105 29.2V6C105.105 4.08 104.385 2.56 102.945 1.44C101.825 0.479995 100.545 -3.8147e-06 99.105 -3.8147e-06ZM61.745 21.52C60.145 21.52 58.785 22 57.665 23.04C56.545 24.08 55.905 25.36 55.825 26.88V49.84V50C55.825 51.28 56.225 52.48 57.025 53.6C58.305 55.2 59.905 56 61.825 56C63.585 56 65.025 55.36 66.145 54.16C67.265 53.04 67.825 51.6 67.825 50V49.92V26.88C67.825 24.72 66.785 23.12 64.705 22.16C63.905 21.68 62.945 21.52 61.905 21.52H61.745ZM117.45 -3.8147e-06H117.37C115.61 -3.8147e-06 114.09 0.719996 112.89 2.16C111.93 3.2 111.45 4.48 111.45 5.92V6V36.48C111.53 37.6 111.93 38.72 112.57 39.68C113.77 41.28 115.37 42.16 117.45 42.16C118.89 42.16 120.09 41.68 121.21 40.88C122.65 39.76 123.45 38.24 123.45 36.4V34H148.01H148.09C149.53 34 150.81 33.52 151.93 32.64C153.37 31.36 154.09 29.84 154.09 28C154.09 26.48 153.61 25.2 152.65 24.08C151.45 22.64 149.93 22 148.09 22H148.01H123.45V12V6C123.45 4.88 123.69 3.76 124.09 2.71999C124.57 1.59999 125.29 0.719996 126.17 -3.8147e-06H117.45ZM130.89 -3.8147e-06C128.97 -3.8147e-06 127.37 0.879994 126.25 2.56C125.61 3.6 125.21 4.72 125.21 6C125.21 7.36 125.69 8.63999 126.49 9.75999C127.69 11.2 129.21 12 131.05 12H154.57C154.73 12 154.81 12 154.89 12C156.65 11.92 158.01 11.28 159.13 10C160.25 8.88 160.73 7.51999 160.73 6C160.73 4.24 160.09 2.71999 158.73 1.59999C157.69 0.559999 156.41 -3.8147e-06 154.81 -3.8147e-06H154.73H154.65H130.89ZM117.45 44C115.05 44 113.05 43.04 111.45 41.28V49.84V50C111.45 51.6 112.01 53.04 113.13 54.24C114.41 55.36 115.85 56 117.45 56C117.61 56 117.77 56 117.77 56H154.41C154.57 56 154.65 56 154.73 56C156.41 56 157.85 55.36 158.97 54.24C160.17 53.04 160.73 51.6 160.73 50C160.73 48.4 160.17 46.96 159.05 45.84C157.93 44.64 156.57 44 154.97 44C154.81 44 154.65 44 154.49 44H123.45H117.45ZM173.235 -3.8147e-06H173.075C171.475 -3.8147e-06 170.035 0.559999 168.835 1.68C167.715 2.88 167.075 4.32 167.075 6C167.075 7.76 167.715 9.2 168.995 10.4C170.115 11.44 171.475 12 173.075 12H173.155H189.075V49.84V50C189.075 51.6 189.635 53.04 190.755 54.24C192.035 55.36 193.475 56 195.075 56C196.835 56 198.355 55.36 199.475 54.08C200.595 52.96 201.075 51.6 201.075 50V49.92V6.32C201.075 5.6 201.075 4.95999 200.915 4.48C200.595 3.36 200.035 2.4 199.155 1.59999C198.115 0.479995 196.835 -3.8147e-06 195.235 -3.8147e-06H173.235ZM200.115 -3.8147e-06C200.835 0.559999 201.395 1.28 201.875 2.08C202.595 3.28 202.915 4.55999 202.915 6V12H217.075C218.675 12 219.955 11.44 221.075 10.48C222.435 9.28 223.075 7.84 223.075 6.08V5.92C223.075 4.08 222.435 2.56 220.995 1.44C219.875 0.479995 218.595 -3.8147e-06 217.155 -3.8147e-06H217.075H200.115Z" fill="#0099FF"/>
</svg>
