<svg width="21" height="24" viewBox="0 0 21 24" fill="none" xmlns="http://www.w3.org/2000/svg">
<path d="M10.4979 23.0969C12.3993 23.0969 13.9899 21.7414 14.3552 19.9473H6.64062C7.00607 21.7414 8.59666 23.0969 10.4979 23.0969Z" fill="white"/>
<path d="M17.8612 10.4978C17.857 10.4978 17.8528 10.4988 17.8485 10.4988C13.7971 10.4988 10.4994 7.20205 10.4994 3.14965C10.4994 2.03562 10.7557 0.982535 11.2019 0.0355643C10.9708 0.013649 10.7366 0 10.4994 0C6.44067 0 3.1503 3.29018 3.1503 7.34912V10.2762C3.1503 12.3539 2.24005 14.3151 0.643117 15.6652C0.110807 16.1198 -0.125455 16.8442 0.0656306 17.5509C0.288244 18.3729 1.10084 18.8979 1.95342 18.8979H19.0402C19.9347 18.8979 20.7779 18.3183 20.9593 17.4417C21.1001 16.7635 20.8586 16.0862 20.3326 15.6442C18.8061 14.3645 17.9231 12.484 17.8612 10.4978Z" fill="white"/>
<path d="M3.13878 10.4978C3.14301 10.4978 3.14724 10.4988 3.15147 10.4988C7.20291 10.4988 10.5006 7.20205 10.5006 3.14965C10.5006 2.03562 10.2443 0.982535 9.79814 0.0355643C10.0292 0.013649 10.2634 0 10.5006 0C14.5593 0 17.8497 3.29018 17.8497 7.34912V10.2762C17.8497 12.3539 18.76 14.3151 20.3569 15.6652C20.8892 16.1198 21.1255 16.8442 20.9344 17.5509C20.7118 18.3729 19.8992 18.8979 19.0466 18.8979H1.95978C1.06529 18.8979 0.222126 18.3183 0.0406513 17.4417C-0.100067 16.7635 0.141386 16.0862 0.667353 15.6442C2.19392 14.3645 3.07688 12.484 3.13878 10.4978Z" fill="white"/>
</svg>
