<svg width="21" height="21" viewBox="0 0 21 21" fill="none" xmlns="http://www.w3.org/2000/svg">
<path d="M15.0684 9.51172C15.0684 9.85154 14.7929 10.127 14.4531 10.127C14.1135 10.127 13.8379 9.85154 13.8379 9.51172C13.8379 9.17206 14.1135 8.89648 14.4531 8.89648C14.7929 8.89648 15.0684 9.17206 15.0684 9.51172Z" fill="white"/>
<path d="M14.4534 2.96484C13.2045 2.96484 12.1914 3.97549 12.1914 5.22679V5.22759C12.1914 5.56725 12.4668 5.84251 12.8066 5.84251C13.1465 5.84251 13.4219 5.56661 13.4219 5.22679C13.4219 4.65802 13.8819 4.19531 14.4542 4.19531C15.0232 4.19531 15.4863 4.65834 15.4863 5.22759C15.4863 5.79668 15.0232 6.25971 14.4542 6.25971C14.1143 6.25971 13.8389 6.53529 13.8389 6.87495V7.53392C13.8389 7.87374 14.1143 8.14915 14.4542 8.14915C14.7938 8.14915 15.0694 7.87374 15.0694 7.53392V7.40527C16.019 7.13658 16.7167 6.26196 16.7167 5.22759C16.7167 3.97982 15.7018 2.96484 14.4534 2.96484Z" fill="white"/>
<path d="M5.90369 15.7013C6.66824 15.1059 7.16139 14.1776 7.16139 13.1359C7.16139 11.3432 5.70277 9.88477 3.9101 9.88477C2.11743 9.88477 0.658974 11.3432 0.658974 13.1359C0.658974 14.1776 1.15212 15.1059 1.91652 15.7013C0.837616 16.3431 0 17.5553 0 19.0668V20.3848C0 20.7246 0.275414 21 0.615234 21H7.20513C7.54479 21 7.82037 20.7246 7.82037 20.3848V19.0668C7.82037 17.5556 6.98291 16.3433 5.90369 15.7013ZM1.88944 13.1359C1.88944 12.0217 2.79595 11.1152 3.91026 11.1152C5.02441 11.1152 5.93092 12.0217 5.93092 13.1359C5.93092 14.2502 5.02441 15.1567 3.91026 15.1567C2.79595 15.1567 1.88944 14.2502 1.88944 13.1359ZM6.5899 19.7695H1.23047V19.0668C1.23047 17.5867 2.42793 16.3872 3.9101 16.3872C5.39019 16.3872 6.58974 17.5846 6.58974 19.0668V19.7695H6.5899Z" fill="white"/>
<path d="M18.4082 0H10.5004C9.06866 0 7.9082 1.15837 7.9082 2.59216V14.4538C7.9082 14.9571 8.48531 15.2514 8.89258 14.946L11.3644 13.0922H18.4082C19.8399 13.0922 21.0004 11.9338 21.0004 10.5V2.59216C21.0004 1.16045 19.842 0 18.4082 0V0ZM19.7699 10.5C19.7699 11.2527 19.1612 11.8617 18.4082 11.8617H11.1593C11.0262 11.8617 10.8967 11.9049 10.7902 11.9847L9.13867 13.2234V2.59216C9.13867 1.83945 9.74734 1.23047 10.5004 1.23047H18.4082C19.1609 1.23047 19.7699 1.83913 19.7699 2.59216V10.5Z" fill="white"/>
</svg>
