<svg width="41" height="41" viewBox="0 0 41 41" fill="none" xmlns="http://www.w3.org/2000/svg">
<g clip-path="url(#clip0)">
<path d="M39.2911 40.9995C38.8538 40.9995 38.4165 40.832 38.0833 40.4989L26.1592 28.5748C25.4912 27.9068 25.4912 26.8271 26.1592 26.1592C26.8271 25.4912 27.9068 25.4912 28.5748 26.1592L40.4989 38.0833C41.1669 38.7513 41.1669 39.831 40.4989 40.4989C40.1658 40.832 39.7285 40.9995 39.2911 40.9995Z" fill="black"/>
<path d="M16.6562 33.3125C7.47225 33.3125 0 25.8403 0 16.6562C0 7.47225 7.47225 0 16.6562 0C25.8403 0 33.3125 7.47225 33.3125 16.6562C33.3125 25.8403 25.8403 33.3125 16.6562 33.3125ZM16.6562 3.41667C9.35654 3.41667 3.41667 9.35654 3.41667 16.6562C3.41667 23.956 9.35654 29.8958 16.6562 29.8958C23.956 29.8958 29.8958 23.956 29.8958 16.6562C29.8958 9.35654 23.956 3.41667 16.6562 3.41667Z" fill="black"/>
</g>
<defs>
<clipPath id="clip0">
<rect width="41" height="41" fill="white"/>
</clipPath>
</defs>
</svg>
